<svg xmlns:inkscape="http://www.inkscape.org/namespaces/inkscape" xmlns:sodipodi="http://sodipodi.sourceforge.net/DTD/sodipodi-0.dtd" xmlns="http://www.w3.org/2000/svg" xmlns:svg="http://www.w3.org/2000/svg" viewBox="0 0 936.2275 861.64488" version="1.1" id="svg33" sodipodi:docname="Glitch_Productions_2023.svg" width="329.5219063657862" height="303.4699607770382" xml:space="preserve" inkscape:version="1.3.1 (91b66b0783, 2023-11-16)"><sodipodi:namedview id="namedview33" pagecolor="#505050" bordercolor="#eeeeee" borderopacity="1" inkscape:showpageshadow="0" inkscape:pageopacity="0" inkscape:pagecheckerboard="0" inkscape:deskcolor="#d1d1d1" inkscape:zoom="1" inkscape:cx="345.5" inkscape:cy="310.5" inkscape:window-width="1920" inkscape:window-height="991" inkscape:window-x="-9" inkscape:window-y="-9" inkscape:window-maximized="1" inkscape:current-layer="svg33"/><defs id="defs1"><style id="style1">.d{fill:#e9e9e9;}.e{fill:#fefefe;}.f{fill:#de62b9;}.g{fill:#424244;}.h{fill:gray;}.i{fill:#55bbf4;}</style></defs><path id="path1" d="M 465.53166,0 C 350.4219,0 285.44142,49.140426 246.6215,105.07031 H 7.8617372 c -6.1499876,0 -9.9150536,6.76343 -6.6699219,11.99024 L 43.031659,184.44922 H 7.592206 l 14.789062,23.83008 h 68.140625 l 22.189457,35.74023 H 80.021893 l 33.800787,54.44141 2.75976,4.43945 H 81.531659 l 49.339841,79.48047 h 35.05079 l 12.81054,20.62891 h 16.74024 l 21.94922,35.34961 h -16.74024 l 10.24024,16.49023 H 83.791425 l -43.830078,43.83008 v 156.7207 l 43.830078,43.83008 H 362.64299 l 61.08984,98.38867 h 15.57031 l 13.18946,21.24024 h -15.57031 l 24.25976,39.08007 c 3.06758,4.9415 10.26942,4.93973 13.33984,0 l 98.6504,-158.70898 H 892.4926 v -72.78125 h 5.34961 V 498.15039 H 698.14299 l 16.86914,-27.13086 h 58.69922 l 61.10156,-98.29883 h -58.70117 l 30.46094,-49.02148 h 38.90039 l 18.51953,-29.7793 h -64.68946 l 21.78907,-35.05078 h 25.77929 l 0.01,0.0117 88.15039,-141.81055 c 3.25072,-5.22953 -0.50994,-12 -6.66992,-12 H 684.43205 C 645.61213,49.140446 580.64142,0 465.53166,0 Z"/><path class="d" d="m 465.53221,36.81 c -139.43,0 -227.3,101.37 -227.3,254.38 0,69.93 22.55,120 130.13,129.3 8.21,0.71 13.58,8.92 10.88,16.71 -4.85,13.99 -6.67,33.15 16.44,38.5 19.76,4.57 29.3,-2.75 32.53,-21.24 l 4.52,-25.85 c 0.67,-3.84 6.36,-3.21 6.18,0.68 l -1.72,35.62 c -0.59,12.11 10.91,24.81 30.65,24.81 19.74,0 28.91,-12.7 28.34,-24.81 l -1.68,-35.62 c -0.18,-3.89 5.51,-4.52 6.18,-0.68 l 4.52,25.85 c 3.23,18.5 12.78,25.82 32.53,21.24 23.11,-5.35 21.29,-24.5 16.44,-38.5 -2.7,-7.79 2.67,-16 10.88,-16.71 107.58,-9.3 130.13,-59.36 130.13,-129.3 0,-153.01 -87.91,-254.38 -229.61,-254.38 z m -98.03,334.92 c -43.28,0 -78.37,-35.09 -78.37,-78.37 0,-43.28 35.09,-78.37 78.37,-78.37 43.28,0 78.37,35.09 78.37,78.37 0,43.28 -35.09,78.37 -78.37,78.37 z m 121.05,35.24 c -5.69179,3.62719 -13.19,5.62 -22.16,5.62 -8.97,0 -16.48056,-1.98912 -22.16,-5.62 -2.36056,-1.50912 -3.17972,-4.56986 -1.94,-7.07 l 19.17,-38.66 c 2.0225,-4.07876 7.8375,-4.07876 9.86,0 l 19.17,38.66 c 1.2437,2.50817 0.41821,5.56719 -1.94,7.07 z m 108.1,-108.36 36.18,36.18 c 2.69,2.69 2.69,7.05 0,9.74 l -20.4,20.4 c -2.69,2.69 -7.05,2.69 -9.74,0 l -36.18,-36.18 c -0.78,-0.78 -2.05,-0.78 -2.83,0 l -36.18,36.18 c -2.69,2.69 -7.05,2.69 -9.74,0 l -20.4,-20.4 c -2.69,-2.69 -2.69,-7.05 0,-9.74 l 36.18,-36.18 c 0.78,-0.78 0.78,-2.05 0,-2.83 l -36.18,-36.18 c -2.69,-2.69 -2.69,-7.05 0,-9.74 l 20.4,-20.4 c 2.69,-2.69 7.05,-2.69 9.74,0 l 36.18,36.18 c 0.78,0.78 2.05,0.78 2.83,0 l 36.18,-36.18 c 2.69,-2.69 7.05,-2.69 9.74,0 l 20.4,20.4 c 2.69,2.69 2.69,7.05 0,9.74 l -36.18,36.18 c -0.78,0.78 -0.78,2.05 0,2.83 z" id="path2" sodipodi:nodetypes="sscccccccscccccccsssssssssssssssssssssssssssssssssssssssss"/><path class="f" d="m 470.53221,36.81 c -0.83,0 -1.66,0 -2.48,0.02 140.21,1.19 227.09,102.26 227.09,254.36 0,69.93 -22.56,120 -130.13,129.29 -8.22,0.71 -13.58,8.92 -10.88,16.71 4.85,13.99 6.67,33.15 -16.44,38.5 -2.79,0.64 -5.37,1.05 -7.76,1.22 3.68,0.31 7.91,-0.1 12.76,-1.22 23.11,-5.35 21.29,-24.51 16.44,-38.5 -2.7,-7.79 2.66,-16 10.88,-16.71 107.57,-9.29 130.13,-59.36 130.13,-129.29 0,-153.01 -87.92,-254.38 -229.61,-254.38 z" id="path3"/><path class="i" d="m 395.67221,475.69 c 3.72,0.86 7.07,1.3 10.09,1.32 h -4.71 c -3.1,0 -6.55,-0.44 -10.38,-1.32 -23.11,-5.35 -21.29,-24.51 -16.44,-38.5 2.7,-7.79 -2.66,-16 -10.88,-16.71 -107.57,-9.29 -130.13,-59.36 -130.13,-129.29 0,-153.01 87.88,-254.38 227.31,-254.38 0.84,0 1.68,0 2.52,0.02 -137.99,1.19 -224.83,102.26 -224.83,254.36 0,69.93 22.56,120 130.13,129.29 8.22,0.71 13.58,8.92 10.88,16.71 -4.85,13.99 -6.67,33.15 16.44,38.5 z" id="path4"/><path class="e" d="m 465.53221,36.81 c -139.43,0 -227.3,101.37 -227.3,254.38 17.22,-129.98 101.62,-200.5 227.3,-200.5 133.1,0 203.05,64.61 229.61,200.5 0,-153.01 -87.91,-254.38 -229.61,-254.38 z" id="path5" style="fill:#ffffff"/><path class="g" d="m 445.87221,293.36 c 0,43.28 -35.09,78.37 -78.37,78.37 -43.28,0 -78.37,-35.09 -78.37,-78.37 0,-1.49 0.04,-2.97 0.13,-4.43 2.29,41.22 36.45,73.94 78.24,73.94 41.79,0 75.95,-32.72 78.24,-73.94 0.09,1.46 0.13,2.94 0.13,4.43 z" id="path6"/><path class="g" d="m 632.84221,344.53 -20.4,20.4 c -2.69,2.69 -7.04,2.69 -9.73,0 l -36.18,-36.18 c -0.79,-0.78 -2.05,-0.78 -2.83,0 l -36.18,36.18 c -2.69,2.69 -7.05,2.69 -9.74,0 l -20.4,-20.4 c -2.54,-2.55 -2.67,-6.59 -0.4,-9.3 0.12,0.15 0.26,0.3 0.4,0.44 l 20.4,20.4 c 2.69,2.69 7.05,2.69 9.74,0 l 36.18,-36.18 c 0.78,-0.78 2.04,-0.78 2.83,0 l 36.18,36.18 c 2.69,2.69 7.04,2.69 9.73,0 l 20.4,-20.4 c 0.14,-0.14 0.28,-0.29 0.4,-0.44 2.28,2.71 2.15,6.75 -0.4,9.3 z" id="path7"/><path id="polygon7" class="h" style="fill:#808080" d="m 116.58221,302.9 h -0.01 l -2.75,-4.44 z"/><path id="polygon8" class="i" style="fill:#55bbf4" d="m 71.972217,509.86 v 134.36 l 28,28.01 h -5 l -28,-28.01 V 509.86 l 28,-28.01 h 5 z"/><path id="rect8" class="i" style="fill:#55bbf4" d="m 141.70221,555.82001 h 5 v 39.76 h -5 z"/><path id="rect9" class="i" style="fill:#55bbf4" d="m 165.81221,595.58002 h 5 v 28.76 h -5 z"/><path id="rect10" class="i" style="fill:#55bbf4" d="m 242.36221,525.15997 h 5 v 147.07001 h -5 z"/><path id="polygon10" class="i" style="fill:#55bbf4" d="m 365.53221,599.46 h -5 v -59.9 l -14.4,-14.4 h 5 l 14.4,14.4 z"/><path id="rect11" class="i" style="fill:#55bbf4" d="m 368.81221,599.46002 h 5 v 72.77 h -5 z"/><path id="rect12" class="i" style="fill:#55bbf4" d="m 429.66221,525.15997 h 5 v 41.14 h -5 z"/><path id="rect13" class="i" style="fill:#55bbf4" d="m 464.7722,566.29999 h 5 v 33.16 h -5 z"/><path id="rect14" class="i" style="fill:#55bbf4" d="m 473.0522,599.46002 h 5 v 72.77 h -5 z"/><path id="polygon14" class="i" style="fill:#55bbf4" d="m 613.44221,525.16 -28.01,28.01 v 46.29 h -4.03 v 44.76 l 28.01,28.01 h -5 l -28.01,-28.01 v -44.76 h 4.03 v -46.29 l 28.01,-28.01 z"/><path id="rect15" class="i" style="fill:#55bbf4" d="m 718.40223,599.46002 h 5 v 72.77 h -5 z"/><path id="rect16" class="i" style="fill:#55bbf4" d="m 723.76222,525.15997 h 5 v 74.30001 h -5 z"/><path id="rect17" class="i" style="fill:#55bbf4" d="m 802.25221,616.13 h 5 v 56.1 h -5 z"/><path id="rect18" class="i" style="fill:#55bbf4" d="m 807.60219,525.15997 h 5 v 49.83 h -5 z"/><path id="polygon18" class="d" style="fill:#ffffff" d="m 146.70221,555.82 h 77.36 V 672.23 H 99.972217 l -28,-28.01 V 509.86 l 28,-28.01 H 224.06221 v 47.89 h -90.87 l -7.98,7.97 v 78.66 l 7.98,7.97 h 37.62 v -28.76 h -24.11 z"/><path id="polygon19" class="f" style="fill:#de62b9" d="m 133.19221,529.74 h 5 l -7.98,7.97 v 78.66 l 7.98,7.97 h -5 l -7.98,-7.97 v -78.66 z"/><path id="rect19" class="f" style="fill:#de62b9" d="m 224.06221,481.85001 h 5 v 47.89 h -5 z"/><path id="rect20" class="f" style="fill:#de62b9" d="m 224.06221,555.82001 h 5 v 116.41 h -5 z"/><path id="polygon20" class="d" style="fill:#ffffff" d="m 350.96221,628.8 v 43.43 h -103.6 V 525.16 h 53.25 V 628.8 Z"/><path id="rect21" class="f" style="fill:#de62b9" d="m 300.6122,525.15997 h 5 v 103.64 h -5 z"/><path id="rect22" class="f" style="fill:#de62b9" d="m 350.9622,628.79999 h 5 v 43.43 h -5 z"/><path id="polygon22" class="d" style="fill:#ffffff" d="m 351.13221,525.16 h 67.65 v 74.3 h 8.28 v 72.77 h -53.25 v -72.77 h -8.28 v -59.9 z"/><path id="rect23" class="f" style="fill:#de62b9" d="m 418.78221,525.15997 h 5 v 74.30001 h -5 z"/><path id="rect24" class="f" style="fill:#de62b9" d="m 427.06221,599.46002 h 5 v 72.77 h -5 z"/><path id="polygon24" class="d" style="fill:#ffffff" d="M 469.77221,599.46 V 566.3 h -35.11 v -41.14 h 122.44 v 41.14 h -34.08 v 33.16 h 8.28 v 72.77 h -53.25 v -72.77 z"/><path id="rect25" class="f" style="fill:#de62b9" d="m 523.02223,566.29999 h 5 v 33.16 h -5 z"/><path id="rect26" class="f" style="fill:#de62b9" d="m 531.3022,599.46002 h 5 v 72.77 h -5 z"/><path id="rect27" class="f" style="fill:#de62b9" d="m 557.10219,525.15997 h 5 v 41.14 h -5 z"/><path id="polygon27" class="d" style="fill:#ffffff" d="m 581.40221,644.22 v -44.76 h 4.03 v -46.29 l 28.01,-28.01 h 90.61 v 43.43 h -57.4 l -7.97,7.98 v 22.89 h -4.03 v 21.36 l 7.97,7.98 h 57.43 v 43.43 h -90.64 z"/><path id="polygon28" class="f" style="fill:#de62b9" d="m 638.68221,599.46 v -22.89 l 7.97,-7.98 h 5 l -7.97,7.98 v 22.89 h -4.03 v 21.36 l 7.97,7.98 h -5 l -7.97,-7.98 v -21.36 z"/><path id="rect28" class="f" style="fill:#de62b9" d="m 700.0522,628.79999 h 5 v 43.43 h -5 z"/><path id="rect29" class="f" style="fill:#de62b9" d="m 704.0522,525.15997 h 5 v 43.43 h -5 z"/><path id="polygon29" class="d" style="fill:#ffffff" d="m 776.65221,616.13 v 56.1 h -53.25 v -72.77 h 5.36 v -74.3 h 53.25 v 49.83 h 30.59 v -49.83 h 53.25 v 74.3 h -5.35 v 72.77 h -53.25 v -56.1 z"/><path id="rect30" class="f" style="fill:#de62b9" d="m 776.65223,616.13 h 5 v 56.1 h -5 z"/><path id="rect31" class="f" style="fill:#de62b9" d="m 782.01222,525.15997 h 5 v 49.83 h -5 z"/><path id="rect32" class="f" style="fill:#de62b9" d="m 860.50221,599.46002 h 5 v 72.77 h -5 z"/><path id="rect33" class="f" style="fill:#de62b9" d="m 865.85219,525.15997 h 5 v 74.30001 h -5 z"/></svg>